<svg width="20" height="20" viewBox="0 0 20 20" fill="none" xmlns="http://www.w3.org/2000/svg">
<path fill-rule="evenodd" clip-rule="evenodd" d="M10 18C5.58172 18 2 14.4183 2 10C2 5.58172 5.58172 2 10 2C14.4183 2 18 5.58172 18 10C18 14.4183 14.4183 18 10 18ZM0 10C0 4.47715 4.47715 0 10 0C15.5228 0 20 4.47715 20 10C20 15.5228 15.5228 20 10 20C4.47715 20 0 15.5228 0 10ZM15.1507 5.2603C15.6635 5.46541 15.9129 6.04738 15.7078 6.56016L15.2951 7.5918C15.09 8.10459 14.508 8.354 13.9953 8.14889C13.4825 7.94378 13.2331 7.36181 13.4382 6.84902L13.8508 5.81738C14.0559 5.3046 14.6379 5.05518 15.1507 5.2603ZM10.7064 8.60008H8.28657C7.83304 8.60008 7.51188 9.04314 7.65299 9.47417C7.74268 9.74813 7.9983 9.93341 8.28657 9.93341H10.7064C10.9947 9.93341 11.2503 9.74813 11.34 9.47417C11.4811 9.04314 11.16 8.60008 10.7064 8.60008ZM8.28657 6.60008C6.47243 6.60008 5.18782 8.37233 5.75226 10.0964C6.11102 11.1923 7.13348 11.9334 8.28657 11.9334H10.7064C11.8595 11.9334 12.882 11.1923 13.2408 10.0964C13.8052 8.37233 12.5206 6.60008 10.7064 6.60008H8.28657ZM7.77778 13.1111C7.53232 13.1111 7.33334 13.3101 7.33334 13.5555C7.33334 13.801 7.53232 14 7.77778 14C8.02324 14 8.22223 13.801 8.22223 13.5555C8.22223 13.3101 8.02324 13.1111 7.77778 13.1111ZM7.77778 15.1111C8.63689 15.1111 9.33334 14.4146 9.33334 13.5555C9.33334 12.6964 8.63689 12 7.77778 12C6.91867 12 6.22223 12.6964 6.22223 13.5555C6.22223 14.4146 6.91867 15.1111 7.77778 15.1111ZM10.8889 13.5555C10.8889 13.3101 11.0879 13.1111 11.3333 13.1111C11.5788 13.1111 11.7778 13.3101 11.7778 13.5555C11.7778 13.801 11.5788 14 11.3333 14C11.0879 14 10.8889 13.801 10.8889 13.5555ZM12.8889 13.5555C12.8889 14.4146 12.1924 15.1111 11.3333 15.1111C10.4742 15.1111 9.77778 14.4146 9.77778 13.5555C9.77778 12.6964 10.4742 12 11.3333 12C12.1924 12 12.8889 12.6964 12.8889 13.5555Z" fill="black"/>
</svg>
